<svg width="385" height="129" viewBox="0 0 385 129" fill="none" xmlns="http://www.w3.org/2000/svg">
<path d="M21.7566 50.2962C21.7566 53.4345 22.2048 55.5405 23.1011 56.6142C23.9974 57.6878 25.6271 58.2247 27.9901 58.2247C30.4347 58.2247 33.5719 56.9858 37.4018 54.5082L39.8464 58.5963C32.6755 64.6253 26.7679 67.6398 22.1233 67.6398C17.4786 67.6398 13.8118 66.5248 11.1227 64.2949C8.43374 61.9824 7.08923 57.9356 7.08923 52.1544V19.6973H0.977824L0 15.1137L7.08923 12.8838V6.81353L21.7566 0V13.6271L36.1796 12.5121L34.8349 20.5645L21.7566 20.069V50.2962Z" fill="black"/>
<path d="M48.4998 95.885H46.4218C44.4662 92.4989 42.9588 87.6675 41.8993 81.3908L44.7105 79.6564C47.0738 81.143 49.1516 81.8863 50.9442 81.8863C54.774 81.8863 57.7077 80.1106 59.7446 76.5593L63.9005 66.7726L45.1996 22.5466C44.2218 20.3167 43.3662 18.9127 42.6328 18.3346C41.8993 17.7565 40.5142 17.3435 38.4769 17.0958L37.6213 12.5121C44.1401 13.1728 48.8256 13.5032 51.6776 13.5032C54.5296 13.5032 59.6224 13.1728 66.956 12.5121L66.4673 16.848C66.3043 16.9306 65.8561 17.0545 65.1226 17.2197C64.4709 17.3848 63.9005 17.55 63.4114 17.7152C63.004 17.7978 62.5153 17.9217 61.9449 18.0868C60.8041 18.5824 60.2337 19.2018 60.2337 19.9451C60.2337 20.5232 60.3967 21.3904 60.7224 22.5466L71.4785 50.42L81.9901 22.0511C82.2345 21.3078 82.3569 20.6058 82.3569 19.9451C82.3569 18.4585 80.1975 17.4674 75.8787 16.9719L75.6343 12.636C79.6271 13.2141 82.9679 13.5032 85.6569 13.5032C88.3459 13.5032 92.787 13.2141 98.9798 12.636L98.1242 17.2197C96.1686 17.3023 94.7834 17.6739 93.9686 18.3346C93.2352 18.9127 92.4609 20.1516 91.6462 22.0511L65.9782 82.8773C62.3114 91.5491 56.4852 95.885 48.4998 95.885Z" fill="black"/>
<path d="M135.642 61.3217C138.82 61.3217 141.509 59.5461 143.709 55.9948C145.99 52.3609 147.131 47.0752 147.131 40.138C147.131 27.2541 143.423 20.8123 136.008 20.8123C132.993 20.8123 129.693 22.5053 126.108 25.8914V54.3843C127.004 56.3664 128.349 58.0182 130.141 59.3396C131.934 60.661 133.768 61.3217 135.642 61.3217ZM135.886 97C128.308 96.2567 123.174 95.885 120.485 95.885C117.796 95.885 112.418 96.2567 104.351 97L103.129 92.5402C106.062 91.8795 108.181 91.1362 109.485 90.3103C110.789 89.4844 111.44 88.2043 111.44 86.47V24.6526C111.44 21.8446 110.381 20.4406 108.263 20.4406L102.64 21.1839L102.029 16.4764C109.037 13.338 115.678 11.4798 121.952 10.9017L124.519 13.7509C124.519 15.5679 124.926 17.6326 125.741 19.9451L131.119 15.857C134.868 12.9664 138.249 11.5211 141.264 11.5211C148.679 11.5211 154.139 13.7922 157.643 18.3346C161.146 22.877 162.898 29.4015 162.898 37.9082C162.898 46.3319 160.25 53.3932 154.954 59.0918C149.657 64.7905 142.853 67.6398 134.542 67.6398C131.853 67.6398 129.041 66.7313 126.108 64.9143V86.7177C126.108 88.2869 126.76 89.5257 128.064 90.4342C129.938 91.2601 132.382 91.9208 135.397 92.4163L136.742 92.6641L135.886 97Z" fill="black"/>
<path d="M185.723 61.6934C187.678 61.6934 189.308 61.074 190.612 59.8351C191.915 58.5963 192.567 57.0684 192.567 55.2515C192.567 53.3519 192.323 51.9479 191.834 51.0395C191.345 50.0484 190.53 49.1399 189.389 48.314C187.76 46.9926 185.437 45.5889 182.423 44.1023C179.489 42.6157 177.167 41.3356 175.456 40.2619C173.826 39.1883 172.196 37.4539 170.566 35.0588C169.018 32.5812 168.244 29.7319 168.244 26.5108C168.244 21.8859 170.037 18.252 173.622 15.6092C177.289 12.8838 181.811 11.5211 187.189 11.5211C192.567 11.5211 198.679 12.4708 205.524 14.3704C205.279 19.7386 204.587 24.281 203.446 27.9975L198.557 29.1125C196.601 21.1839 192.894 17.2197 187.434 17.2197C183.767 17.2197 181.934 19.4083 181.934 23.7854C181.934 25.5198 182.626 27.0064 184.011 28.2453C185.478 29.4841 187.597 30.8055 190.367 32.2095C193.138 33.531 195.134 34.5633 196.356 35.3066C197.579 35.9673 199.209 37.0823 201.246 38.6515C204.994 41.6246 206.868 45.7951 206.868 51.1633C206.868 56.5316 204.831 60.6197 200.757 63.4277C196.683 66.2358 191.304 67.6398 184.623 67.6398C178.022 67.6398 172.237 66.5248 167.266 64.2949C167.103 62.8909 167.022 60.4546 167.022 56.9858C167.022 53.4345 167.103 50.9569 167.266 49.5529L173.255 48.1904C173.907 52.237 175.333 55.4992 177.533 57.9769C179.733 60.4546 182.463 61.6934 185.723 61.6934Z" fill="black"/>
<path d="M232.91 50.2962C232.91 53.4345 233.358 55.5405 234.255 56.6142C235.151 57.6878 236.781 58.2247 239.144 58.2247C241.588 58.2247 244.726 56.9858 248.555 54.5082L251 58.5963C243.829 64.6253 237.922 67.6398 233.277 67.6398C228.632 67.6398 224.966 66.5248 222.277 64.2949C219.588 61.9824 218.243 57.9356 218.243 52.1544V19.6973H212.131L211.154 15.1137L218.243 12.8838V6.81353L232.91 0V13.6271L247.333 12.5121L245.989 20.5645L232.91 20.069V50.2962Z" fill="black"/>
<path d="M178.259 118.854C176.843 119.439 175.378 119.732 173.864 119.732C171.96 119.732 170.275 119.244 168.811 118.268C167.346 117.275 166.215 115.948 165.417 114.288C164.619 112.628 164.221 110.821 164.221 108.868C164.221 106.541 164.709 104.482 165.686 102.691C166.662 100.885 167.94 99.4932 169.519 98.5166C171.114 97.5238 172.806 97.0273 174.597 97.0273C175.899 97.0273 176.989 97.1982 177.868 97.54C178.747 97.8818 179.398 98.3376 179.821 98.9072C180.261 99.4769 180.48 100.095 180.48 100.763C180.48 101.495 180.212 102.089 179.675 102.545C179.138 103.001 178.373 103.261 177.38 103.326C176.892 102.171 176.346 101.218 175.744 100.47C175.158 99.7048 174.393 99.3223 173.449 99.3223C172.489 99.3223 171.643 99.6234 170.91 100.226C170.194 100.828 169.632 101.682 169.226 102.789C168.835 103.88 168.64 105.157 168.64 106.622C168.64 108.103 168.908 109.633 169.445 111.212C169.982 112.791 170.796 114.117 171.887 115.191C172.977 116.266 174.312 116.803 175.891 116.803C176.981 116.803 177.893 116.673 178.625 116.412C179.357 116.152 180.09 115.785 180.822 115.313L181.433 116.729C180.749 117.543 179.691 118.251 178.259 118.854Z" fill="black"/>
<path d="M198.474 118.219C196.911 119.179 195.186 119.659 193.298 119.659C191.198 119.659 189.392 119.179 187.878 118.219C186.381 117.258 185.233 115.948 184.436 114.288C183.654 112.612 183.264 110.715 183.264 108.6C183.264 106.223 183.76 104.156 184.753 102.398C185.746 100.624 187.048 99.2734 188.659 98.3457C190.287 97.418 192.028 96.9541 193.884 96.9541C195.853 96.9541 197.562 97.4261 199.011 98.3701C200.476 99.3141 201.59 100.641 202.355 102.35C203.137 104.042 203.527 106.004 203.527 108.233C203.527 110.447 203.072 112.424 202.16 114.166C201.265 115.908 200.036 117.258 198.474 118.219ZM196.447 101.129C195.503 100.055 194.307 99.5176 192.858 99.5176C191.687 99.5176 190.702 99.8512 189.904 100.519C189.123 101.186 188.545 102.081 188.171 103.204C187.797 104.311 187.609 105.532 187.609 106.866C187.609 108.673 187.829 110.366 188.269 111.944C188.708 113.523 189.416 114.809 190.393 115.802C191.369 116.795 192.614 117.291 194.128 117.291C195.218 117.291 196.146 116.957 196.911 116.29C197.676 115.606 198.246 114.728 198.62 113.653C198.994 112.579 199.182 111.44 199.182 110.235C199.182 108.478 198.962 106.785 198.522 105.157C198.099 103.53 197.408 102.187 196.447 101.129Z" fill="black"/>
<path d="M217.37 117.071L217.102 119H205.847L206.091 117.193L209.753 116.217V101.446L205.847 100.201L206.091 98.3701L213.513 97.3447L213.952 97.8574L213.513 100.934H213.732C214.595 99.8594 215.669 98.9561 216.955 98.2236C218.257 97.4912 219.624 97.125 221.057 97.125C222.294 97.125 223.409 97.4505 224.401 98.1016C225.41 98.7526 226.094 99.7699 226.452 101.153H226.745C227.608 100.047 228.658 99.1351 229.895 98.4189C231.148 97.6865 232.499 97.3203 233.947 97.3203C237.788 97.3203 239.709 99.5908 239.709 104.132V116.192L243.078 117.071L242.761 119H232.385L232.556 117.218L235.607 116.241V104.718C235.607 103.497 235.241 102.48 234.509 101.666C233.776 100.852 232.775 100.445 231.506 100.445C230.529 100.445 229.683 100.665 228.967 101.104C228.267 101.528 227.559 102.122 226.843 102.887V116.217L230.456 117.071L230.212 119H219.396L219.665 117.193L222.863 116.217V104.718C222.863 103.888 222.676 103.147 222.302 102.496C221.944 101.845 221.447 101.34 220.812 100.982C220.178 100.624 219.47 100.445 218.688 100.445C217.777 100.445 216.898 100.632 216.052 101.007C215.205 101.365 214.481 101.886 213.879 102.569V116.217L217.37 117.071Z" fill="black"/>
<path d="M256.042 117.071L255.773 119H244.519L244.763 117.193L248.425 116.217V101.446L244.519 100.201L244.763 98.3701L252.185 97.3447L252.624 97.8574L252.185 100.934H252.404C253.267 99.8594 254.341 98.9561 255.627 98.2236C256.929 97.4912 258.296 97.125 259.729 97.125C260.965 97.125 262.08 97.4505 263.073 98.1016C264.082 98.7526 264.766 99.7699 265.124 101.153H265.417C266.28 100.047 267.329 99.1351 268.566 98.4189C269.82 97.6865 271.171 97.3203 272.619 97.3203C276.46 97.3203 278.381 99.5908 278.381 104.132V116.192L281.75 117.071L281.433 119H271.057L271.228 117.218L274.279 116.241V104.718C274.279 103.497 273.913 102.48 273.181 101.666C272.448 100.852 271.447 100.445 270.178 100.445C269.201 100.445 268.355 100.665 267.639 101.104C266.939 101.528 266.231 102.122 265.515 102.887V116.217L269.128 117.071L268.884 119H258.068L258.337 117.193L261.535 116.217V104.718C261.535 103.888 261.348 103.147 260.974 102.496C260.616 101.845 260.119 101.34 259.484 100.982C258.85 100.624 258.142 100.445 257.36 100.445C256.449 100.445 255.57 100.632 254.724 101.007C253.877 101.365 253.153 101.886 252.551 102.569V116.217L256.042 117.071Z" fill="black"/>
<path d="M285.974 112.481V101.227L282.604 99.8838L282.946 97.9551L289.489 97.4424L290.1 98.0283V111.261C290.1 114.565 291.353 116.217 293.859 116.217C294.885 116.217 295.747 116.054 296.447 115.729C297.163 115.403 297.814 114.939 298.4 114.337V101.373L294.519 100.348L294.763 98.1016L301.94 97.4424L302.453 98.0283V113.751C302.453 114.532 302.551 115.126 302.746 115.533C302.958 115.924 303.234 116.201 303.576 116.363C303.918 116.526 304.423 116.681 305.09 116.827L306.213 117.071L305.993 119.098C305.228 119.277 304.602 119.399 304.113 119.464C303.625 119.529 303.023 119.562 302.307 119.562C301.135 119.562 300.24 119.236 299.621 118.585C299.019 117.934 298.718 117.079 298.718 116.021V115.802H298.4C296.675 118.308 294.348 119.562 291.418 119.562C289.725 119.562 288.391 119.008 287.414 117.901C286.454 116.778 285.974 114.972 285.974 112.481Z" fill="black"/>
<path d="M319.177 117.071L318.835 119H307.507L307.751 117.218L311.438 116.217V101.397L307.678 100.128L307.922 98.2725L315.197 97.3203L315.612 97.7842L315.197 100.909H315.441C316.369 99.8024 317.468 98.8828 318.737 98.1504C320.007 97.418 321.358 97.0518 322.79 97.0518C324.694 97.0518 326.151 97.654 327.16 98.8584C328.169 100.063 328.674 101.764 328.674 103.961V116.217L332.189 117.071L331.945 119H320.983L321.228 117.218L324.597 116.217V104.913C324.597 103.399 324.206 102.276 323.425 101.544C322.66 100.795 321.634 100.421 320.349 100.421C319.437 100.421 318.558 100.608 317.712 100.982C316.866 101.34 316.141 101.853 315.539 102.521V116.217L319.177 117.071Z" fill="black"/>
<path d="M340.661 92.4863C340.205 92.7467 339.717 92.877 339.196 92.877C338.675 92.877 338.187 92.7386 337.731 92.4619C337.292 92.1852 336.942 91.819 336.682 91.3633C336.421 90.8913 336.291 90.3867 336.291 89.8496C336.291 89.0846 336.576 88.4417 337.146 87.9209C337.731 87.3838 338.415 87.1152 339.196 87.1152C340.01 87.1152 340.71 87.3838 341.296 87.9209C341.882 88.458 342.175 89.1172 342.175 89.8984C342.175 90.4355 342.036 90.932 341.76 91.3877C341.499 91.8434 341.133 92.2096 340.661 92.4863ZM345.104 119H333.386L333.679 117.071L337.365 116.168V101.153L333.679 99.8105L333.996 97.9551L340.856 97.3936L341.467 98.0039V116.168L345.373 117.047L345.104 119Z" fill="black"/>
<path d="M349.353 112.652L349.45 100.372H346.35V99.0537C347.342 98.2399 348.376 97.2389 349.45 96.0508C350.524 94.8626 351.501 93.6663 352.38 92.4619H353.674V98.2725H360.583L360.363 100.421H353.625L353.552 111.212C353.552 112.433 353.674 113.393 353.918 114.093C354.162 114.793 354.545 115.289 355.065 115.582C355.586 115.875 356.278 116.021 357.141 116.021C357.678 116.021 358.207 115.924 358.728 115.729C359.248 115.517 359.696 115.289 360.07 115.045C360.461 114.801 360.656 114.671 360.656 114.654L361.169 115.973C360.404 117.096 359.452 117.975 358.312 118.609C357.173 119.244 355.92 119.562 354.553 119.562C352.909 119.562 351.623 119.049 350.695 118.023C349.784 116.982 349.336 115.191 349.353 112.652Z" fill="black"/>
<path d="M368.737 127.569C367.842 128.041 366.76 128.277 365.49 128.277C364.774 128.277 364.123 128.131 363.537 127.838C362.967 127.561 362.52 127.195 362.194 126.739C361.885 126.3 361.73 125.844 361.73 125.372C361.73 124.819 361.828 124.306 362.023 123.834C362.219 123.362 362.577 122.898 363.098 122.442C363.765 122.898 364.383 123.224 364.953 123.419C365.539 123.631 366.149 123.736 366.784 123.736C367.598 123.736 368.347 123.508 369.03 123.053C369.73 122.597 370.373 121.645 370.959 120.196L371.447 119L364.489 100.494L361.462 99.5664L361.73 97.6865H371.984L371.765 99.4932L368.664 100.421L373.645 113.58L378.918 100.543L375.72 99.5176L376.062 97.6865H384.411L384.24 99.4932L381.774 100.494L373.693 120.294C372.847 122.394 372.033 124.013 371.252 125.152C370.471 126.292 369.632 127.097 368.737 127.569Z" fill="black"/>
</svg>
